# xmcd CD database file
#
# Track frame offsets:
#	183
#	13005
#	25063
#	38043
#	51073
#	64830
#	76393
#	86473
#	98490
#	112723
#	127865
#	141645
#	156433
#	169265
#	181973
#	194828
#	208363
#	221173
#	233665
#	247475
#	261343
#	275253
#	288813
#	302688
#
# Disc length: 4220 seconds
#
# Revision: 0
# Processed by: cddbd v1.4PL0 Copyright (c) Steve Scherf et al.
# Submitted via: CDex 1.50beta10
#
DISCID=5e107a18
DTITLE=Billie Holiday - The Voice Of Jazz - The Complete Recordings 1933-1940
DYEAR=1991
DGENRE=Jazz
TTITLE0=A Sailboat In The Moonlight
TTITLE1=Born To Love
TTITLE2=Without Your Love
TTITLE3=Without Your Love
TTITLE4=Getting Some Fun Out Of Life
TTITLE5=Who Wants Love?
TTITLE6=Trav'lin' All Alone
TTITLE7=He's Funny That Way
TTITLE8=Nice Work If You Can Get It
TTITLE9=Things Are Looking Up
TTITLE10=My Man
TTITLE11=Can't Help Lovin' Dat Man
TTITLE12=My First Impression Of You
TTITLE13=My First Impression Of You
TTITLE14=When You're Smiling
TTITLE15=When You're Smiling
TTITLE16=I Can't Believe That You're In Love With Me
TTITLE17=I Can't Believe That You're In Love With Me
TTITLE18=If Dreams Come True
TTITLE19=If Dreams Come True
TTITLE20=Now They Call It Swing
TTITLE21=Now They Call It Swing
TTITLE22=On The Sentimental Side
TTITLE23=On The Sentimental Side
EXTD=YEAR: 1991
EXTT0=
EXTT1=
EXTT2=
EXTT3=
EXTT4=
EXTT5=
EXTT6=
EXTT7=
EXTT8=
EXTT9=
EXTT10=
EXTT11=
EXTT12=
EXTT13=
EXTT14=
EXTT15=
EXTT16=
EXTT17=
EXTT18=
EXTT19=
EXTT20=
EXTT21=
EXTT22=
EXTT23=
PLAYORDER=
